<svg version="1" xmlns="http://www.w3.org/2000/svg" width="1389.333" height="1389.333" viewBox="0 0 1042.000000 1042.000000"><path d="M530.7 44.2c.9 8.1-7.4 16.4-15.5 15.5-4.2-.5-4.3-.4-2.9 1.7 1.9 2.8 8.6 6.6 11.7 6.6 4 0 10.3-4.2 12.7-8.5 1.3-2.2 2.3-5.1 2.3-6.5 0-3.1-3.8-9.8-6.6-11.7-2.1-1.4-2.2-1.3-1.7 2.9zM608 91.9c0 .6.4 1.2.9 1.5.5.3 1.4 2.9 2.1 5.7 3.1 13-6.4 30.7-21.4 39.8-10 6-20.7 7.4-28 3.6-1.6-.9-3.1-1.3-3.3-1.1-.8.8 6.8 11.6 9.4 13.4 1.4.9 3.3 2.4 4.3 3.3.9.9 3.4 1.9 5.4 2.3 2 .4 4.2 1.6 4.9 2.6 1 1.7 2.3 2 9.9 2 7.1 0 8.8-.3 8.8-1.5 0-1.7 3-3.5 6-3.5 1.1 0 4.3-1.8 7.1-4 6.2-4.9 12.9-13.2 12.9-16 0-3 1.8-6 3.5-6 1.2 0 1.5-1.7 1.5-8.8 0-7.6-.3-8.9-2-9.9-1-.7-2.2-2.9-2.6-4.9-.4-2-1.4-4.5-2.3-5.4-.9-1-2.4-2.9-3.3-4.3-1.5-2.2-11.7-9.7-13.2-9.7-.3 0-.6.4-.6.9zM543.7 199.7c2 5 1.1 11-2.9 18.4-3.6 6.8-7.7 10.8-14.8 14.4-6.7 3.4-12.6 4.1-17.3 2.2-2-.9-3.7-1.3-3.7-.9 0 3.6 11.1 14.2 14.9 14.2 1.2 0 2.4.7 2.7 1.5.9 2.1 14.4 2.2 14.4 0 0-.8 1.4-1.7 3.6-2.1 5.1-.9 14.9-10.7 15.8-15.8.4-2.2 1.3-3.6 2.1-3.6 2.2 0 2.1-13.5 0-14.4-.8-.3-1.5-1.5-1.5-2.7 0-3.8-10.6-14.9-14.2-14.9-.4 0 0 1.7.9 3.7zM434.3 282.1c-5.1 2.5-9.9 7.7-12.6 13.8-1.6 3.4-2.2 7.3-2.5 15.2-.4 9.3-.1 11.2 1.8 15.8 1.3 2.9 4 6.6 6.2 8.5l3.9 3.3L431 449v110.3l-5.2 9.6c-2.8 5.3-13.1 24-22.8 41.6-9.8 17.6-28.3 51.1-41.2 74.5-51.4 92.9-72.2 130.5-97 175.3-37 66.9-36.2 65.1-36.3 82.7 0 18.5 5.7 31.1 21 46.6 9.6 9.7 18.6 15.7 30.3 20.3l6.7 2.6 238 .3c144 .1 239.9-.1 243-.7 20.5-3.8 42.8-20.7 52.9-40 5.9-11.5 7.1-16.3 7-29.1-.1-17.9 2-13.2-42.4-93.5-26.2-47.3-58.6-105.9-96-173.5-14.4-26.1-33.1-59.9-41.5-75-8.4-15.1-17.1-31.2-19.4-35.7L624 557V447.8l.1-109.3 3.8-2.6c2.2-1.6 4.8-4.7 6.2-7.5 2.1-4.3 2.4-6.3 2.4-16.4 0-10.7-.2-11.9-3-17.3-3.1-6.3-7.9-11.1-13.1-13.3-2.8-1.2-19.1-1.4-92.6-1.4-88.6 0-89.3 0-93.5 2.1zm176.3 20.3c3.3 3.3 3.4 3.6 3.4 12 0 7.9-.2 8.8-2.8 11.7-1.5 1.7-4.2 3.4-6.2 3.8l-3.5.7-.3 122.2L601 575l11.3 21.2c9.6 18 18.9 35.2 40.2 74.3 4.5 8.3 28.8 53.4 33.8 62.5 2.2 4.1 6.6 12.2 9.7 18 3.2 5.8 10.4 19 16 29.5 5.6 10.4 13.1 24.2 16.5 30.5 3.4 6.3 11.1 20.5 17.1 31.5 5.9 11 14.1 26.1 18.1 33.5 18.5 33.8 22.2 43.5 22.3 57.5 0 19-11.3 35.3-31.3 44.9-17.1 8.2 1.2 7.6-226.4 7.6-200.6 0-202.9 0-210.1-2-29.4-8.2-49.4-33.3-46.8-58.7.4-3.5 1.7-9.4 3-13.3 2.7-7.8 5.7-13.6 65.6-124 7.3-13.5 19.3-35.8 26.8-49.5 7.4-13.8 19.1-35.4 26-48 6.8-12.7 14.1-26.2 16.2-30 2.1-3.9 9.4-17.4 16.2-30 6.9-12.7 14.9-27.5 17.8-33 2.9-5.5 6.8-12.8 8.6-16.2l3.4-6.1v-121c0-66.6-.3-121.7-.6-122.6-.3-.9-1.5-1.6-2.6-1.6-2.8 0-7.6-2.7-8.8-4.9-1.3-2.5-1.3-18.7 0-21.1 2.7-5 .9-4.9 85.4-5h78.8l3.4 3.4z"/><path d="M561.4 333c-1.2.4-3.1 2.1-4.3 3.6l-2.1 2.7v214.9l3.4 3.4c5.4 5.4 12.4 4.2 15.8-2.6 1.7-3.3 1.8-10.5 1.8-108.3 0-114.7.2-110-5.9-113.1-3.3-1.8-5.5-1.9-8.7-.6zM513.3 345.5c1.5 4.9-.5 10.7-5.4 16-5.3 5.7-11.6 8.3-17 6.8l-3.8-1 1.7 2.9c2 3.4 6.3 6.8 8.6 6.8.9 0 1.6.4 1.6 1 0 .5 2 1 4.4 1 2.5 0 4.8-.5 5.1-1 .3-.6 1.4-1 2.4-1 .9 0 3.8-2.1 6.4-4.7 2.6-2.6 4.7-5.5 4.7-6.4 0-1 .5-2.1 1-2.4.6-.3 1-2.6 1-5.1 0-2.4-.4-4.4-1-4.4-.5 0-1-.7-1-1.6 0-2.4-3.4-6.7-6.8-8.7l-3-1.7 1.1 3.5zM488.7 430.9c1.2 4.6-6.2 12-10.8 10.8-2.5-.7-2.4.5.2 2.9 3.2 2.9 9.3 2.5 12.6-.9 3.4-3.3 3.8-9.4.9-12.6-2.4-2.6-3.6-2.7-2.9-.2zM524.7 498.2c.9 8.1-7.4 16.4-15.5 15.5-4.2-.5-4.3-.4-2.9 1.7 1.9 2.8 8.6 6.6 11.7 6.6 4 0 10.3-4.2 12.7-8.5 1.3-2.2 2.3-5.1 2.3-6.5 0-3.1-3.8-9.8-6.6-11.7-2.1-1.4-2.2-1.3-1.7 2.9zM490.7 586.9c.7 2.8-2.3 7.9-5.8 9.7-1.7.9-4 1.4-5 1.1-2.5-.7-2.4.5.2 2.9 3.2 2.9 9.3 2.5 12.6-.9 3.4-3.3 3.8-9.4.9-12.6-2.4-2.6-3.6-2.7-2.9-.2zM519.1 594c-.7 2.2-.9 4.6-.5 5.2.4.6.3.8-.3.5-.6-.4-1.3.3-1.6 1.6-.3 1.2-1.9 7.1-3.7 13.2-5.5 19.1-7.2 28.2-7.3 40.6l-.2 11.5 4.8 9.5c2.6 5.2 6.5 12.1 8.7 15.4 2.1 3.3 3.9 6.3 3.9 6.6.1.4-3 .8-6.7 1.1-4.7.2-8.4 1.1-12.1 3l-5.2 2.6-5.2-2c-2.9-1.1-8.6-2.2-12.7-2.5-23.4-1.7-42.4 14-46.2 38-.8 4.9-1.7 7.7-2.5 7.7-.9 0-1.3 1.5-1.3 4.5 0 3.9-.3 4.5-2.2 4.5-3.9 0-12.6 5.1-17.3 10.1-5.5 5.9-8.5 12.1-9.2 19.5-.4 3.8-1 5.4-2 5.4-1.2 0-1.3.9-.8 4.2 1.9 11.2 6.6 19.6 14.4 25.4 4.1 3.1 4.7 4 4.3 6.4-.2 1.6-.9 2.8-1.5 2.7-.7-.1-1 1.5-.8 4.2.9 14.2 10.4 27.2 24.7 33.8 5 2.3 7.3 2.7 14.9 2.8 5 0 10.5-.3 12.3-.7 2.9-.7 3.2-.5 3.2 1.6 0 2-.9 2.7-4.7 4-12.6 4.3-22.8 17.8-23.4 31.1-.2 3.5-.7 4.9-1.9 5.2-1.4.4-1.6 1.2-.8 6.1 2.6 16.9 15.9 30.2 33.1 33.2 21.3 3.7 41.6-10.6 45.6-32.2.8-4.6.7-6.3-.4-8.5-2.2-4.1-2-4.3 3.3-4.3 6.3 0 15.4-2.4 21.6-5.8 10.8-5.8 19.9-18.9 21.3-30.3.6-4.9.7-5 3.2-4.4 5.7 1.3 18 1.7 23.1.6 13.6-2.9 26.1-12.6 32.4-25.1 4-8.1 6.7-20.7 4.7-22-.7-.4-1.7-2.9-2.2-5.6-.7-3.8-4.3-12.4-7.6-18.5-.2-.3 1.6-1.1 3.9-1.8 14.6-4.3 26.4-15.3 31.6-29.4 2.5-6.5 4-16.7 2.5-16.7-.5 0-1.4-2.6-2.1-5.8-.7-3.1-2.3-8-3.6-10.8-2.3-5-8.1-12.4-9.6-12.4-.4 0 1 3.5 3.1 7.7 3 5.9 4.1 9.5 4.6 14.6l.6 6.7-33.9-.2-33.9-.3-.3-2.5c-.5-3.5 1.3-8.9 4.9-14.3 3.7-5.6 3.6-5.6 14.8 3.6 6.8 5.5 7.5 5.8 8.7 4.2 1.2-1.6.9-2.1-2.4-4.8-6-4.9-12.5-8.7-14.6-8.7-3.5 0 3.1-5.7 11.2-9.8 6.4-3.1 8.6-3.6 16.1-4 4.7-.2 10.4.1 12.6.7 2.1.6 4.1.9 4.3.6.2-.2-1.4-1.5-3.6-3-10-6.6-23.7-9-34.9-6.1-8.6 2.2-13.5 4.8-19.5 10.6-4.6 4.4-5.7 5-9.7 5.2l-4.6.1 4.3.4 4.2.4-2.4 4.2c-3.1 5.4-5.6 13.9-5.6 19.4 0 3.7-.3 4.3-2.1 4.3-2 0-2.1.4-1.5 4.5l.7 4.5h-8c-4.5 0-8.1-.2-8.1-.4s.9-2.3 2-4.7c1.1-2.4 2-5.6 2-7.2 0-3 1.5-3.3 8.2-1.8 2.2.5 3.6.5 3.2 0-.3-.5.2-1.9 1-3.1.9-1.2 1.6-2.6 1.6-3 0-.5-2.9-.8-6.5-.8-5.8 0-6.5-.2-6.5-2 0-1.1-.4-2-1-2-.5 0-1-1.3-1-3 0-4.4 4.2-6.3 11.1-5 6.5 1.3 6.4 1.3 5-.4-3.6-4.3-19.4-8.9-27.1-7.9-3.3.4-3.7.1-5.8-3.5-2.9-5.2-2.8-5.6.9-4.8 2.6.5 2.9.4 2-.8-.6-.8-2.5-1.9-4.2-2.6-3.6-1.5-5.2-4.4-9-16.3-5.7-17.7-6.9-27.6-4.7-37.8.6-3 1.1-6.6 1.2-8.1.1-1.4.3-2.4.5-2.2.6.5 7.2-18.5 7.4-21.3.1-1.1.5-1.9.8-1.7.9.5 5.9-12.8 5.2-13.9-.3-.6-.1-.7.4-.4.9.6 2.3-1.2 2.3-2.8 0-.3-13.6-7.5-14.3-7.5-.2 0-.9 1.8-1.6 4zm8.5 113.5c.9 3.5-3.3 10.2-7.8 12.8l-3.7 2.1-2.6-2.8c-3.3-3.6-4.1-2.8-1.6 1.5l2 3.4-2.5 3.3c-2.3 2.9-3 3.2-7.5 2.9-2.7-.1-4.9-.5-4.9-.8 0-.3.9-1.4 2-2.4 2.4-2.2 2.5-3.4.4-4.9-1.3-1-1.1-1.7 2-5.8 5.1-6.6 14-11.6 20.8-11.8 2.1 0 2.9.6 3.4 2.5zm-35.1 5.1c-2.8 4.1-4.5 9.4-4.5 14 0 2-.6 3.4-1.6 3.8-1.3.5-1.5 1.4-1 4.1.7 3.4.6 3.5-3.4 4.1-3.4.6-4.1 1-3.8 2.8.3 1.8 1 2.1 5.2 2.1 3 0 5.1.5 5.3 1.2.4 1-4 1.3-19.7 1.3h-20.2l.7-3.3c1.3-6 6.6-15.6 11.3-20.5 8.3-8.5 18.1-13 28.9-13.1l5.2-.1-2.4 3.6zm46.7 16.2c.2.9-1.2 1.4-4.4 1.6-2.7.1-4.8-.1-4.8-.4 0-.3 1.7-1.6 3.7-2.7 3.8-2.2 4.6-2 5.5 1.5zm-102.3 40.7c1.7 3.1 4.9 7.3 7.1 9.5 2.2 2.2 4 4.2 4 4.5 0 .3-2.6.5-5.8.5-5.7 0-8.2 1.1-8.2 3.7 0 .9 1.6 1.1 6.3.8 3.4-.3 8.2-.7 10.7-.9l4.5-.4-4 1.3c-2.6.9-9.7 1.4-20.7 1.4-16.1.1-16.8 0-16.8-1.9 0-2.9 4.5-12.1 7.7-15.7 2.8-3.1 9.9-8.3 11.3-8.3.5 0 2.2 2.5 3.9 5.5zm75.5 16.3l2.7 2.9-2.9 3.1-2.9 3.1-6.1-1.6c-3.4-.8-6.2-1.9-6.2-2.3 0-.4 1.2-1.3 2.8-1.9 1.5-.6 4.1-2.2 5.7-3.6 1.7-1.3 3.3-2.4 3.6-2.5.3 0 1.8 1.3 3.3 2.8zm69.9-.4c2.4 1.8 2.1 2.6-.8 2.6-1.4 0-2.5-.2-2.5-.4s-.3-1.1-.6-2c-.8-2 1.4-2.1 3.9-.2zm-58.8 8.1c2.8 1.3 5.5 2.5 6.2 2.5 1 0 3.3 5 3.3 7.1 0 1-22.3 1.2-23.3.3-.7-.7 7-12.4 8.1-12.4.4 0 3 1.1 5.7 2.5zm83.6.2c7.6.6 7.7.6 9.4 4.2 2.3 4.8 4.5 12.8 4.5 16.8v3.3h-45.4l4.5-2.8c4.7-3 9.4-8.1 11.2-11.9.8-1.8 1.5-2.2 3.1-1.6 3.6 1.2 7 .6 8.8-1.7 3.1-3.8 2.3-5-3.2-5-3.9 0-5-.3-5-1.6 0-1.2.6-1.5 2.3-1 1.2.4 5.6 1 9.8 1.3zm-105.4 3.5c3.9.9 4.4 1.3 4.1 3.7-.3 2.4-.7 2.6-5.7 2.9-7.7.4-8.1.1-6.9-4.8.8-3 1.5-4 2.6-3.5.8.3 3.4 1 5.9 1.7zm-26.9 5.3c-1.6 3-3.4 5.5-4 5.5-.5 0-.7-.6-.4-1.3.3-.6 1.1-3.1 1.8-5.5.9-3.3 1.7-4.2 3.4-4.2 2.2 0 2.2.1-.8 5.5zm6.1 1.1c-1.8 3.5.3 11.8 4.7 18.2 1.9 2.9 3.2 5.7 2.8 6.3-.4.8-9.2 1-28.5.8-27.6-.4-35.5-1.2-19.6-2.1 9.6-.5 16.3-3.4 22.8-9.9 2.2-2.2 4.4-3.7 4.8-3.4.5.3-.4 2.9-1.9 5.7-2.1 3.8-2.6 5.6-1.8 6.5 1.8 2.2 2.5 1.5 4.7-4.7 1.2-3.3 2.7-6 3.3-6 1.6 0 5.8-4.1 5.8-5.7 0-.7-.9-1.3-2.1-1.3-1.8 0-1.7-.5 1.8-5.5 3.2-4.5 3.9-5.1 4.1-3.3.2 1.1-.2 3.2-.9 4.4zm54.9 29.9c.5 1.6 1.3 3.8 1.7 4.7.6 1.5.1 1.8-2.9 1.8-4.1 0-4 0-2.4 3.5 1.2 2.7 4.7 4.1 7.4 3.1 1.2-.5 3.3 1 7.1 4.9 2.9 3 6.8 6.2 8.5 7.1 2.4 1.2 2.8 1.8 1.7 2.5-.8.5-14.8.9-31.1.9H496v-2.8c0-3 4.2-12.7 6.7-15.4 1.5-1.7 2-1.4 8.3 4.5 7.9 7.5 15.3 11.6 17.5 9.7 2.4-2 1.9-2.6-4.8-6.3-5.1-2.9-15.7-9.7-17.6-11.4-1.3-1.1 3.2-3.5 7.5-3.9 6-.5 12.9-2.8 16.9-5.4 3.3-2.1 3.7-1.9 5.3 2.5zm-55.9 36.7c.1 1.3-.7 1.8-2.9 1.8-2.6 0-3-.4-3-2.8 0-3.9 4.1-6.1 5.2-2.8.3 1.1.6 2.9.7 3.8zm5.9 14.7c1.9 2.9 3 5.6 2.6 6.5-.9 2.4 2.4 5.6 5.8 5.6 1.6 0 4.8 1.1 7.1 2.4 2.3 1.3 5.9 2.9 8 3.6 3.5 1.1 3.8 1.5 3.5 4.3l-.3 3.2h-35l-1.3-11c-1.7-15.2-1.5-16.5 2.8-18.1 1.9-.7 3.5-1.3 3.6-1.3 0-.1 1.5 2.1 3.2 4.8zm-13.2 12.7c.5 6.9.7 12.8.5 13-.2.2-4.4.4-9.3.4-10.1 0-10 .2-6.7-8.5 1.9-5 11.7-17.5 13.9-17.5.4 0 1.1 5.7 1.6 12.6z"/><path d="M625.8 722.8c-3.8.2-6.8.7-6.8 1.1 0 .5.9 2 2.1 3.5 3.6 4.5 10.2 3.1 12.2-2.6.8-2.3.4-2.4-7.5-2z"/></svg>